_________________________  Visit us at _________________________
  
http://p2pdl.com  ____________________________  http://p2pdl.com


The Numbers Station 2013 BRRip 480p x264 AAC - VYTO


Genre: Action | Thriller
Plot: A former black ops agent and the young woman he's assigned to protect fight for survival after
a surprise attack. 
Director: Kasper Barfoed
Stars: Malin Akerman, John Cusack, Hannah Murray.
Rated: R for violence and language .


Info: 
http://www.imdb.com/title/tt1659338/

Trailer:


Format                         : MPEG-4
File size                      : 301 MiB
Duration                       : 1h 28mn
Overall bit rate mode          : Variable
Overall bit rate               : 473 Kbps

Video
Format                         : AVC
Bit rate                       : 431 Kbps
Width                          : 720 pixels
Height                         : 304 pixels
Display aspect ratio           : 2.35:1
Frame rate mode                : Constant
Frame rate                     : 23.976 fps
Stream size                    : 274 MiB (91%)
Writing library                : x264 core 130 r2273

Audio
Format                         : AAC
Bit rate                       : 40.0 Kbps
Channel(s)                     : 2 channels
Channel positions              : Front: L R
Sampling rate                  : 44.1 KHz
Stream size                    : 25.4 MiB (8%)

Subtitle                       : Yes (English)
Source                         : 720p.BluRay.x264.DTS-HDWinG(Thanks)

Screens:
 
http://ultraimg.com/images/XDe0.png 
http://ultraimg.com/images/LauG.png 
http://ultraimg.com/images/VjKrc.png 
http://ultraimg.com/images/PJCU4.png 
http://ultraimg.com/images/BqemS.png 
http://ultraimg.com/images/Lq3hg.png 
http://ultraimg.com/images/IXTO.png 
http://ultraimg.com/images/HvinZ.png 
http://ultraimg.com/images/gdHfq.png


----------------------------------------------------------------------------------------------------


Encoded using revolutionary 10bit encoding, which enables us to provide you more crispier 
and sharper images at small sizes, just make sure you follow our instructions without a fault.
Recommend to you to use latest version of VLC player. Install K-Lite Codec Pack or shark007 codecs
in case of any kind of problem in playback (For non-VLC Media Player users). Alternatively, install
Core AVC codecs, the fastest decoder that there is coupled with Community Center Codec Pack and play
on Windows Media Player Classic. Check sample to be sure.
Enjoy!

Encoder Notes:Looking For Early Access To Anything You Can Provide DVDScr, R5, DVDR, BluRay, Direct
Audio, Music Releases and Seedboxes. We require dedicated servers, so as to do more 
and fast releases of movies.
If You Got anything to offer please contact us at "prg@hush.com".

Face book Fan Page:   
http://www.fb.me/p2pdl